{"title":"Marquez vs Pacquiao III 2011 ShowTime WS DSR XviD SS","uid":6815690,"size":1001942178,"categoryP":"video","categoryS":"tv_shows","magnet":"?xt=urn:btih:892e6155dda084c9e5adfed07e74ec30e6a8c920&amp;dn=Marquez+vs+Pacquiao+III+2011+ShowTime+WS+DSR+XviD+SS&amp;tr=udp%3A%2F%2Ftracker.openbittorrent.com%3A80&amp;tr=udp%3A%2F%2Fopen.demonii.com%3A1337&amp;tr=udp%3A%2F%2Ftracker.coppersurfer.tk%3A6969&amp;tr=udp%3A%2F%2Fexodus.desync.com%3A6969","seeders":0,"leechers":1,"uploader":"DibyaTPB","files":1,"time":1321193683,"description":"Marquez.vs.Pacquiao.III.2011.ShowTime.WS.DSR.XviD-SS\n\nGeneral Information\nFormat : AVI\nFormat/Info : Audio Video Interleave\nFile size : 956 MiB\nDuration : 1h 36mn\nOverall bit rate : 1 382 Kbps\nWriting library : MPlayer\nVideo\nID : 0\nFormat : MPEG-4 Visual\nFormat profile : Advanced Simple@L5\nFormat settings, BVOP : 2\nFormat settings, QPel : No\nFormat settings, GMC : No warppoints\nFormat settings, Matrix : Default (H.263)\nMuxing mode : Packed bitstream\nCodec ID : XVID\nCodec ID/Hint : XviD\nDuration : 1h 36mn\nBit rate : 1 288 Kbps\nWidth : 640 pixels\nHeight : 352 pixels\nDisplay aspect ratio : 16:9\nFrame rate : 25.000 fps\nColor space : YUV\nChroma subsampling : 4:2:0\nBit depth : 8 bits\nScan type : Progressive\nCompression mode : Lossy\nBits/(Pixel*Frame) : 0.229\nStream size : 890 MiB (93%)\nWriting library : XviD 64\nAudio\nID : 1\nFormat : MPEG Audio\nFormat version : Version 1\nFormat profile : Layer 3\nMode : Joint stereo\nMode extension : MS Stereo\nCodec ID : 55\nCodec ID/Hint : MP3\nDuration : 1h 36mn\nBit rate mode : Variable\nBit rate : 81.2 Kbps\nMinimum bit rate : 32.0 Kbps\nChannel(s) : 2 channels\nSampling rate : 48.0 KHz\nCompression mode : Lossy\nStream size : 56.2 MiB (6%)\nAlignment : Aligned on interleaves\nInterleave, duration : 24 ms (0.60 video frame)\nInterleave, preload duration : 470 ms\nWriting library : LAME3.98r\nEncoding settings : -m j -V 5 -q 2 -lowpass 16.5 --vbr-new -b 32\n\n\nRelease Notes\nCheers to walter for the cap ","torrent":{"xt":"urn:btih:892e6155dda084c9e5adfed07e74ec30e6a8c920","amp;dn":"Marquez+vs+Pacquiao+III+2011+ShowTime+WS+DSR+XviD+SS","amp;tr":["udp%3A%2F%2Ftracker.openbittorrent.com%3A80","udp%3A%2F%2Fopen.demonii.com%3A1337","udp%3A%2F%2Ftracker.coppersurfer.tk%3A6969","udp%3A%2F%2Fexodus.desync.com%3A6969"],"infoHash":"892e6155dda084c9e5adfed07e74ec30e6a8c920","infoHashBuffer":{"type":"Buffer","data":[137,46,97,85,221,160,132,201,229,173,254,208,126,116,236,48,230,168,201,32]},"announce":[],"urlList":[]}}